<?xml version="1.0" encoding="UTF-8"?>
<!DOCTYPE svg PUBLIC "-//W3C//DTD SVG 1.1//EN" "http://www.w3.org/Graphics/SVG/1.1/DTD/svg11.dtd">
<!-- Creator: CorelDRAW X8 -->
<svg xmlns="http://www.w3.org/2000/svg" xml:space="preserve" width="2228px" height="1181px" version="1.1" style="shape-rendering:geometricPrecision; text-rendering:geometricPrecision; image-rendering:optimizeQuality; fill-rule:evenodd; clip-rule:evenodd"
viewBox="0 0 2228 1181"
 xmlns:xlink="http://www.w3.org/1999/xlink">
 <defs>
  <style type="text/css">
   <![CDATA[
    .fil1 {fill:black;fill-rule:nonzero}
    .fil0 {fill:white;fill-rule:nonzero}
    .fil2 {fill:white;fill-rule:nonzero}
   ]]>
  </style>
 </defs>
 <g id="Слой_x0020_1">
  <metadata id="CorelCorpID_0Corel-Layer"/>
  <g id="_530746736">
   <path class="fil0" d="M210 0c57,0 117,4 181,12 64,8 126,23 186,46 60,22 115,55 163,99 49,43 88,100 117,170 29,70 44,158 44,264 0,101 -15,186 -43,256 -29,69 -67,126 -115,170 -49,43 -103,77 -163,101 -61,25 -123,41 -187,50 -63,9 -124,13 -183,13l-194 0c-11,0 -16,-4 -16,-13l0 -464 226 0 0 260c28,1 62,0 100,-2 39,-3 78,-10 118,-22 41,-13 78,-32 113,-59 35,-26 63,-63 85,-110 21,-48 31,-108 31,-180 0,-94 -19,-169 -58,-226 -39,-56 -92,-97 -160,-121 -67,-24 -143,-33 -229,-28l0 261 -226 0 0 -464c0,-9 5,-13 16,-13l194 0z"/>
   <path class="fil0" d="M2004 521l-302 604c-2,6 -6,9 -13,9l-182 0c-7,0 -12,-3 -14,-9l-321 -620 0 663c0,9 -5,13 -16,13l-195 0c-10,0 -15,-4 -15,-13l0 -1155c0,-9 5,-13 15,-13l198 0c8,0 13,3 15,9l424 865 403 -865c4,-6 9,-9 16,-9l195 0c11,0 16,4 16,13l0 641 0 242 0 272c0,9 -5,13 -16,13l-195 0c-10,0 -15,-4 -15,-13 0,-217 2,-432 2,-647z"/>
   <path class="fil1" d="M2015 22c4,-6 8,-9 14,-9l170 0c10,0 14,5 14,13l0 627 0 236 0 266c0,9 -4,13 -14,13l-170 0c-8,0 -13,-4 -13,-13 0,-378 1,-755 -1,-1133z"/>
   <path class="fil2" d="M2123 1159c48,0 85,-30 85,-88 0,-21 -4,-36 -7,-43l-30 5c3,8 5,21 5,32 0,34 -21,54 -55,54 -38,0 -56,-24 -56,-54 0,-13 3,-24 6,-31l-30 -8c-3,6 -7,21 -7,41 0,51 32,92 89,92z"/>
   <path id="1" class="fil2" d="M2208 938c0,-46 -31,-83 -88,-83 -49,0 -86,29 -86,79 0,50 35,83 88,83 51,0 86,-30 86,-79zm-30 -2c0,26 -25,41 -57,41 -31,0 -57,-14 -57,-41 0,-28 28,-41 57,-41 31,0 57,14 57,41z"/>
   <path id="2" class="fil2" d="M2205 834l0 -36 -64 -3c-21,-1 -47,-2 -70,-2l0 -1c22,-4 46,-10 66,-15l65 -18 0 -30 -65 -21c-20,-6 -44,-13 -66,-19l0 0c25,0 49,-1 70,-2l64 -2 0 -37 -169 8 0 50 56 18c19,6 42,12 62,16l0 1c-20,4 -42,9 -61,14l-57 17 0 51 169 11z"/>
   <path id="3" class="fil2" d="M2205 618l0 -38 -60 0c0,-3 1,-8 1,-13 0,-23 -6,-42 -18,-55 -9,-10 -23,-15 -40,-15 -17,0 -31,7 -39,18 -9,11 -14,28 -14,51 0,23 2,40 4,52l166 0zm-89 -38l-51 0c-1,-3 -1,-8 -1,-15 0,-20 9,-30 25,-30 17,0 27,12 27,32 0,6 0,10 0,13z"/>
   <path id="4" class="fil2" d="M2205 500l0 -40 -43 -12 0 -48 43 -13 0 -42 -169 53 0 50 169 52zm-71 -57l-37 -10c-9,-3 -22,-6 -32,-8l0 -1c10,-2 22,-5 32,-8l37 -10 0 37z"/>
   <path id="5" class="fil2" d="M2205 323l0 -35 -50 0c-28,0 -52,1 -74,2l0 -1c19,-8 41,-20 59,-30l65 -36 0 -40 -169 0 0 35 49 0c26,0 49,0 71,-3l0 1c-19,8 -40,17 -58,28l-62 35 0 44 169 0z"/>
   <path id="6" class="fil2" d="M2205 116l0 -38 -70 0 -99 -56 0 43 41 17c12,5 22,9 32,13l0 0c-11,4 -20,8 -32,13l-41 17 0 44 100 -53 69 0z"/>
  </g>
 </g>
</svg>
