<?xml version="1.0" encoding="UTF-8"?>
<!DOCTYPE svg PUBLIC "-//W3C//DTD SVG 1.1//EN" "http://www.w3.org/Graphics/SVG/1.1/DTD/svg11.dtd">
<!-- Creator: CorelDRAW X8 -->
<svg xmlns="http://www.w3.org/2000/svg" xml:space="preserve" width="2228px" height="1181px" version="1.1" style="shape-rendering:geometricPrecision; text-rendering:geometricPrecision; image-rendering:optimizeQuality; fill-rule:evenodd; clip-rule:evenodd"
viewBox="0 0 2028 1075"
 xmlns:xlink="http://www.w3.org/1999/xlink">
 <defs>
  <style type="text/css">
   <![CDATA[
    .fil0 {fill:black;fill-rule:nonzero}
    .fil2 {fill:black;fill-rule:nonzero}
    .fil1 {fill:white;fill-rule:nonzero}
   ]]>
  </style>
 </defs>
 <g id="Слой_x0020_1">
  <metadata id="CorelCorpID_0Corel-Layer"/>
  <path class="fil0" d="M191 0c52,0 107,4 165,11 58,7 115,21 170,41 54,21 104,51 148,90 44,40 80,92 106,156 27,64 40,144 40,240 0,92 -13,170 -39,233 -26,63 -61,115 -105,154 -44,40 -93,71 -148,93 -56,22 -112,37 -170,45 -58,8 -113,12 -167,12l-176 0c-10,0 -15,-4 -15,-12l0 -422 206 0 0 237c26,1 56,0 91,-2 35,-3 71,-9 108,-20 36,-12 71,-29 102,-54 32,-24 58,-57 77,-100 19,-43 29,-98 29,-164 0,-85 -18,-154 -53,-205 -36,-52 -84,-89 -145,-111 -62,-21 -131,-30 -209,-26l0 238 -206 0 0 -422c0,-8 5,-12 15,-12l176 0z"/>
  <path class="fil0" d="M1824 474l-274 550c-2,6 -6,8 -12,8l-166 0c-7,0 -11,-2 -13,-8l-292 -564 0 603c0,8 -5,12 -15,12l-177 0c-9,0 -13,-4 -13,-12l0 -1051c0,-8 4,-12 13,-12l180 0c7,0 12,3 14,8l385 788 367 -788c4,-5 9,-8 15,-8l178 0c9,0 14,4 14,12l0 584 0 220 0 247c0,8 -5,12 -14,12l-178 0c-9,0 -13,-4 -13,-12 0,-197 1,-393 1,-589z"/>
  <path class="fil1" d="M1835 20c3,-5 7,-8 12,-8l155 0c9,0 13,4 13,12l0 570 0 216 0 241c0,8 -4,12 -13,12l-155 0c-7,0 -11,-4 -11,-12 0,-344 0,-687 -1,-1031z"/>
  <path class="fil2" d="M1933 1055c44,0 77,-27 77,-80 0,-19 -4,-33 -7,-40l-27 6c3,7 5,18 5,29 0,31 -19,49 -50,49 -34,0 -51,-22 -51,-49 0,-12 3,-22 6,-29l-28 -7c-3,6 -6,19 -6,37 0,47 29,84 81,84z"/>
  <path id="1" class="fil2" d="M2010 854c0,-42 -28,-76 -80,-76 -45,0 -79,26 -79,73 0,45 33,75 81,75 46,0 78,-28 78,-72zm-27 -2c0,24 -23,37 -52,37 -29,0 -52,-13 -52,-37 0,-26 26,-37 52,-37 28,0 52,13 52,37z"/>
  <path id="2" class="fil2" d="M2007 759l0 -32 -58 -3c-19,-1 -43,-2 -63,-3l0 0c20,-4 41,-9 60,-14l59 -16 0 -28 -60 -18c-18,-6 -40,-13 -59,-17l0 -1c22,0 44,-1 63,-1l58 -3 0 -34 -153 8 0 46 51 16c17,6 38,11 56,15l0 1c-18,3 -38,8 -56,13l-51 15 0 46 153 10z"/>
  <path id="3" class="fil2" d="M2007 563l0 -35 -54 0c0,-3 1,-7 1,-12 0,-20 -6,-38 -17,-50 -8,-9 -21,-14 -36,-14 -15,0 -28,7 -36,17 -8,10 -12,25 -12,47 0,20 1,36 3,47l151 0zm-81 -35l-46 0c-1,-2 -1,-7 -1,-14 0,-18 9,-27 23,-27 15,0 25,11 25,29 0,5 -1,9 -1,12z"/>
  <path id="4" class="fil2" d="M2007 455l0 -36 -39 -11 0 -44 39 -12 0 -38 -153 48 0 46 153 47zm-65 -52l-32 -9c-9,-3 -21,-5 -30,-7l0 -1c9,-2 20,-5 30,-8l32 -9 0 34z"/>
  <path id="5" class="fil2" d="M2007 294l0 -32 -46 0c-25,0 -47,1 -67,2l0 -1c18,-7 38,-18 54,-27l59 -33 0 -36 -153 0 0 32 44 0c24,0 44,-1 65,-3l0 0c-18,7 -37,16 -53,26l-56 32 0 40 153 0z"/>
  <path id="6" class="fil2" d="M2007 105l0 -34 -64 0 -89 -51 0 39 37 16c11,4 20,8 29,11l0 1c-10,3 -18,7 -29,11l-37 16 0 40 91 -49 62 0z"/>
 </g>
</svg>
